<?xml version="1.0" encoding="utf-8"?>
<?xml-stylesheet type="text/xsl" href="rss1.xsl"?>
<rss version="2.0" xmlns:atom="http://www.w3.org/2005/Atom" xmlns:content="http://purl.org/rss/1.0/modules/content/" xmlns:dc="http://purl.org/dc/elements/1.1/" xmlns:media="http://search.yahoo.com/mrss/">
<channel>
 <title>Getty</title>
 <link>http://www.gettyimg.com/</link>
 <atom:link href="http://www.gettyimg.com/" rel="self" type="application/rss+xml" />

 
                <item>
                <title><![CDATA[【Apple Music】WEB-RiP - Elena - Perna mea (1080p)]]></title>
                <link><![CDATA[https://sharemania.us/threads/elena-perna-mea-1080p.250804/]]></link>
                <description><![CDATA[<article>
<blockquote class="messageText SelectQuoteContainer ugc baseHtml">
<img src="https://i.postimg.cc/Wp6BMd5y/Elena-Perna-mea-mp4.jpg" class="bbCodeImage LbImage" alt="[​IMG]" data-url="https://i.postimg.cc/Wp6BMd5y/Elena-Perna-mea-mp4.jpg" style=""><br>
<br>
<div class="bbCodeBlock bbCodeCode">
<div class="type">Code:</div>
<pre>General
Complete name                  : G:\Новая папка\Elena - Perna mea.mp4
Format                         : MPEG-4
Format profile                 : Base Media
Codec ID                       : isom (isom/iso2/avc1/mp41)
File size                      : 159 MiB
Duration                       : 3 min 15 s
Overall bit rate               : 6 827 kb/s
Frame rate                     : 25.000 FPS
Movie name                     : Perna mea
Performer                      : Elena
Genre                          : Pop
ContentType                    : Music Video
Recorded date                  : 2021-08-31 07:00:00 UTC
Writing application            : Lavf56.30.100
Copyright                      : ℗ 2016 Cat Music

Video
ID                             : 1
Format                         : AVC
Format/Info                    : Advanced Video Codec
Format profile                 : High@L4
Format settings                : CABAC / 4 Ref Frames
Format settings, CABAC         : Yes
Format settings, Reference fra : 4 frames
Format settings, Slice count   : 8 slices per frame
Codec ID                       : avc1
Codec ID/Info                  : Advanced Video Coding
Duration                       : 3 min 15 s
Bit rate                       : 6 563 kb/s
Width                          : 1 920 pixels
Height                         : 1 080 pixels
Display aspect ratio           : 16:9
Frame rate mode                : Constant
Frame rate                     : 25.000 FPS
Color space                    : YUV
Chroma subsampling             : 4:2:0
Bit depth                      : 8 bits
Scan type                      : Progressive
Bits/(Pixel*Frame)             : 0.127
Stream size                    : 153 MiB (96%)
Color range                    : Limited
Color primaries                : BT.709
Transfer characteristics       : BT.709
Matrix coefficients            : BT.709
Codec configuration box        : avcC

Audio
ID                             : 2
Format                         : AAC LC
Format/Info                    : Advanced Audio Codec Low Complexity
Codec ID                       : mp4a-40-2
Duration                       : 3 min 15 s
Duration_LastFrame             : -4 ms
Bit rate mode                  : Constant
Bit rate                       : 265 kb/s
Channel(s)                     : 2 channels
Channel layout                 : L R
Sampling rate                  : 48.0 kHz
Frame rate                     : 46.875 FPS (1024 SPF)
Compression mode               : Lossy
Stream size                    : 6.06 MiB (4%)
Default                        : Yes
Alternate group                : 1

</pre>
</div>
<div class="bbCodeBlock bbCodeVfcHH HiddenContent">
<div class="attribution type">Hidden Content:</div>
<blockquote>You must either reply or click 'Like' to see the hidden information contained here.</blockquote>
</div>
<div class="messageTextEndMarker">&nbsp;</div>
</blockquote>
</article>]]></description>
                <author><![CDATA[vitalya3]]></author>
                </item>

                
                <item>
                <title><![CDATA[【Apple Music】WEB-RiP - Sylwia Grzeszczak - Rakiety (1080p)]]></title>
                <link><![CDATA[https://sharemania.us/threads/sylwia-grzeszczak-rakiety-1080p.250806/]]></link>
                <description><![CDATA[<article>
<blockquote class="messageText SelectQuoteContainer ugc baseHtml">
<img src="https://i.postimg.cc/52dQZNc8/Sylwia-Grzeszczak-Rakiety-mp4.jpg" class="bbCodeImage LbImage" alt="[​IMG]" data-url="https://i.postimg.cc/52dQZNc8/Sylwia-Grzeszczak-Rakiety-mp4.jpg" style=""><br>
<br>
<div class="bbCodeBlock bbCodeCode">
<div class="type">Code:</div>
<pre>General
Complete name                  : G:\Новая папка\Sylwia Grzeszczak - Rakiety.mp4
Format                         : MPEG-4
Format profile                 : Base Media
Codec ID                       : isom (isom/iso2/avc1/mp41)
File size                      : 162 MiB
Duration                       : 3 min 32 s
Overall bit rate               : 6 405 kb/s
Frame rate                     : 25.000 FPS
Movie name                     : Rakiety
Performer                      : Sylwia Grzeszczak
Genre                          : Pop
ContentType                    : Music Video
Recorded date                  : 2019-09-11 07:00:00 UTC
Writing application            : Lavf56.30.100
Copyright                      : ℗ 2019 The copyright in this sound recording is owned by DL PROMO under exclusive licence to Warner Music Poland, A Warner Music Group Company

Video
ID                             : 1
Format                         : AVC
Format/Info                    : Advanced Video Codec
Format profile                 : High@L4.1
Format settings                : CABAC / 5 Ref Frames
Format settings, CABAC         : Yes
Format settings, Reference fra : 5 frames
Format settings, Slice count   : 8 slices per frame
Codec ID                       : avc1
Codec ID/Info                  : Advanced Video Coding
Duration                       : 3 min 32 s
Bit rate                       : 6 144 kb/s
Width                          : 1 920 pixels
Height                         : 796 pixels
Display aspect ratio           : 2.40:1
Frame rate mode                : Constant
Frame rate                     : 25.000 FPS
Color space                    : YUV
Chroma subsampling             : 4:2:0
Bit depth                      : 8 bits
Scan type                      : Progressive
Bits/(Pixel*Frame)             : 0.161
Stream size                    : 155 MiB (96%)
Color range                    : Limited
Color primaries                : BT.709
Transfer characteristics       : BT.709
Matrix coefficients            : BT.709
Codec configuration box        : avcC

Audio
ID                             : 2
Format                         : AAC LC
Format/Info                    : Advanced Audio Codec Low Complexity
Codec ID                       : mp4a-40-2
Duration                       : 3 min 32 s
Duration_LastFrame             : -15 ms
Bit rate mode                  : Constant
Bit rate                       : 256 kb/s
Channel(s)                     : 2 channels
Channel layout                 : L R
Sampling rate                  : 48.0 kHz
Frame rate                     : 46.875 FPS (1024 SPF)
Compression mode               : Lossy
Stream size                    : 6.48 MiB (4%)
Default                        : Yes
Alternate group                : 1

</pre>
</div>
<div class="bbCodeBlock bbCodeVfcHH HiddenContent">
<div class="attribution type">Hidden Content:</div>
<blockquote>You must either reply or click 'Like' to see the hidden information contained here.</blockquote>
</div>
<div class="messageTextEndMarker">&nbsp;</div>
</blockquote>
</article>]]></description>
                <author><![CDATA[vitalya3]]></author>
                </item>

                
                <item>
                <title><![CDATA[【Apple Music】WEB-RiP - Elena - Pana dimineata (feat. JJ) (1080p)]]></title>
                <link><![CDATA[https://sharemania.us/threads/elena-pana-dimineata-feat-jj-1080p.250802/]]></link>
                <description><![CDATA[<article>
<blockquote class="messageText SelectQuoteContainer ugc baseHtml">
<img src="https://i.postimg.cc/gjYv9tF3/Elena-Pana-dimineata-feat-JJ-mp4.jpg" class="bbCodeImage LbImage" alt="[​IMG]" data-url="https://i.postimg.cc/gjYv9tF3/Elena-Pana-dimineata-feat-JJ-mp4.jpg" style=""><br>
<br>
<div class="bbCodeBlock bbCodeCode">
<div class="type">Code:</div>
<pre>General
Complete name                  : G:\Новая папка\Elena - Pana dimineata (feat. JJ).mp4
Format                         : MPEG-4
Format profile                 : Base Media
Codec ID                       : isom (isom/iso2/avc1/mp41)
File size                      : 258 MiB
Duration                       : 3 min 36 s
Overall bit rate               : 9 988 kb/s
Frame rate                     : 25.000 FPS
Movie name                     : Pana dimineata (feat. JJ)
Performer                      : Elena
Genre                          : Pop
ContentType                    : Music Video
Recorded date                  : 2021-09-02 07:00:00 UTC
Writing application            : Lavf56.30.100
Copyright                      : ℗ 2013 Cat Music

Video
ID                             : 1
Format                         : AVC
Format/Info                    : Advanced Video Codec
Format profile                 : High@L4
Format settings                : CABAC / 4 Ref Frames
Format settings, CABAC         : Yes
Format settings, Reference fra : 4 frames
Format settings, Slice count   : 8 slices per frame
Codec ID                       : avc1
Codec ID/Info                  : Advanced Video Coding
Duration                       : 3 min 36 s
Bit rate                       : 9 722 kb/s
Width                          : 1 920 pixels
Height                         : 912 pixels
Display aspect ratio           : 2.105
Frame rate mode                : Constant
Frame rate                     : 25.000 FPS
Color space                    : YUV
Chroma subsampling             : 4:2:0
Bit depth                      : 8 bits
Scan type                      : Progressive
Bits/(Pixel*Frame)             : 0.222
Stream size                    : 251 MiB (97%)
Color range                    : Limited
Color primaries                : BT.709
Transfer characteristics       : BT.709
Matrix coefficients            : BT.709
Codec configuration box        : avcC

Audio
ID                             : 2
Format                         : AAC LC
Format/Info                    : Advanced Audio Codec Low Complexity
Codec ID                       : mp4a-40-2
Duration                       : 3 min 36 s
Duration_LastFrame             : -9 ms
Bit rate mode                  : Constant
Bit rate                       : 265 kb/s
Channel(s)                     : 2 channels
Channel layout                 : L R
Sampling rate                  : 48.0 kHz
Frame rate                     : 46.875 FPS (1024 SPF)
Compression mode               : Lossy
Stream size                    : 6.76 MiB (3%)
Default                        : Yes
Alternate group                : 1

</pre>
</div>
<div class="bbCodeBlock bbCodeVfcHH HiddenContent">
<div class="attribution type">Hidden Content:</div>
<blockquote>You must either reply or click 'Like' to see the hidden information contained here.</blockquote>
</div>
<div class="messageTextEndMarker">&nbsp;</div>
</blockquote>
</article>]]></description>
                <author><![CDATA[vitalya3]]></author>
                </item>

                
                <item>
                <title><![CDATA[【Apple Music】WEB-RiP - Elena Gheorghe - Midnight Sun (1080p)]]></title>
                <link><![CDATA[https://sharemania.us/threads/elena-gheorghe-midnight-sun-1080p.250801/]]></link>
                <description><![CDATA[<article>
<blockquote class="messageText SelectQuoteContainer ugc baseHtml">
<img src="https://i.postimg.cc/Gt9ZjQ7x/Elena-Gheorghe-Midnight-Sun-mp4.jpg" class="bbCodeImage LbImage" alt="[​IMG]" data-url="https://i.postimg.cc/Gt9ZjQ7x/Elena-Gheorghe-Midnight-Sun-mp4.jpg" style=""><br>
<br>
<div class="bbCodeBlock bbCodeCode">
<div class="type">Code:</div>
<pre>General
Complete name                  : G:\Новая папка\Elena Gheorghe - Midnight Sun.mp4
Format                         : MPEG-4
Format profile                 : Base Media
Codec ID                       : isom (isom/iso2/avc1/mp41)
File size                      : 157 MiB
Duration                       : 3 min 14 s
Overall bit rate               : 6 766 kb/s
Frame rate                     : 25.000 FPS
Movie name                     : Midnight Sun
Performer                      : Elena
Genre                          : Dance
ContentType                    : Music Video
Recorded date                  : 2021-09-01 07:00:00 UTC
Writing application            : Lavf56.30.100
Copyright                      : ℗ 2011 Cat Music

Video
ID                             : 1
Format                         : AVC
Format/Info                    : Advanced Video Codec
Format profile                 : High@L4
Format settings                : CABAC / 4 Ref Frames
Format settings, CABAC         : Yes
Format settings, Reference fra : 4 frames
Format settings, Slice count   : 8 slices per frame
Codec ID                       : avc1
Codec ID/Info                  : Advanced Video Coding
Duration                       : 3 min 14 s
Bit rate                       : 6 500 kb/s
Width                          : 1 920 pixels
Height                         : 1 080 pixels
Display aspect ratio           : 16:9
Frame rate mode                : Constant
Frame rate                     : 25.000 FPS
Color space                    : YUV
Chroma subsampling             : 4:2:0
Bit depth                      : 8 bits
Scan type                      : Progressive
Bits/(Pixel*Frame)             : 0.125
Stream size                    : 151 MiB (96%)
Color range                    : Limited
Color primaries                : BT.709
Transfer characteristics       : BT.709
Matrix coefficients            : BT.709
Codec configuration box        : avcC

Audio
ID                             : 2
Format                         : AAC LC
Format/Info                    : Advanced Audio Codec Low Complexity
Codec ID                       : mp4a-40-2
Duration                       : 3 min 14 s
Duration_LastFrame             : -7 ms
Bit rate mode                  : Constant
Bit rate                       : 265 kb/s
Channel(s)                     : 2 channels
Channel layout                 : L R
Sampling rate                  : 48.0 kHz
Frame rate                     : 46.875 FPS (1024 SPF)
Compression mode               : Lossy
Stream size                    : 6.09 MiB (4%)
Default                        : Yes
Alternate group                : 1

</pre>
</div>
<div class="bbCodeBlock bbCodeVfcHH HiddenContent">
<div class="attribution type">Hidden Content:</div>
<blockquote>You must either reply or click 'Like' to see the hidden information contained here.</blockquote>
</div>
<div class="messageTextEndMarker">&nbsp;</div>
</blockquote>
</article>]]></description>
                <author><![CDATA[vitalya3]]></author>
                </item>

                
                <item>
                <title><![CDATA[【Albums (lossless)】FLAC - MOTÖRHEAD - 2016 - Clean Your Clock [24bit-96kHz] + BDRip 720p MKV]]></title>
                <link><![CDATA[https://sharemania.us/threads/mot%C3%96rhead-2016-clean-your-clock-24bit-96khz-bdrip-720p-mkv.250800/]]></link>
                <description><![CDATA[<article>
<blockquote class="messageText SelectQuoteContainer ugc baseHtml">
<div style="text-align: center"><img src="https://static.qobuz.com/images/covers/51/70/0190296997051_600.jpg" class="bbCodeImage LbImage" alt="[​IMG]" data-url="https://static.qobuz.com/images/covers/51/70/0190296997051_600.jpg" style=""> <br>
<br>
<b>Band</b>: Motörhead<br>
<b>Album</b>: Clean Your Clock <span style="font-size: 15px">(Live In Munich 2015)</span><br>
<b>Date</b>: 27 May 2016<br>
<b>Genre</b>: Heavy Rock / Hard rock / Heavy Metal<br>
<b>Quality</b>: 24bit-96kHz<br>
<b>Country</b>: UK<br>
<b>Size</b>: 1,6GB<br>
<br>
<b>Tracklist</b>:<br>
<br>
1-Bomber 03:36<br>
2-Stay Clean 03:20<br>
3-Metropolis 04:11<br>
4-When the Sky Comes Looking for You 03:46<br>
5-Over the Top 02:53<br>
6-Guitar Solo 02:00<br>
7-The Chase Is Better Than the Catch 05:09<br>
8-Lost Woman Blues 04:44<br>
9-Rock It 03:10<br>
10-Orgasmatron 05:40<br>
11-Dr. Rock 08:57<br>
12-Just 'Cos You Got The Power 05:57<br>
13-No Class 03:14<br>
14-Ace of Spades 03:50<br>
15-Whorehouse Blues 04:36<br>
16-Overkill 09:00<br>
<br>
<b><span style="font-size: 22px"><span style="color: #b30000">send.cm</span></span></b>:<br>
<br>
<div class="bbCodeBlock bbCodeVfcHH HiddenContent">
<div class="attribution type">Hidden Content:</div>
<blockquote>You must either reply or click 'Like' to see the hidden information contained here.</blockquote>
</div><img src="https://i.imgur.com/fl1GLi9.jpeg" class="bbCodeImage LbImage" alt="[​IMG]" data-url="https://i.imgur.com/fl1GLi9.jpeg" style=""> <br>
<br>
<b><span style="font-size: 22px">Motörhead - 2016 - Clean Your Clock</span></b><br>
<br>
<b>Duration</b>: 01:21:59<br>
<b>Year</b>: 2016<br>
<br>
<b>Tracklist</b>:<br>
<br>
1. Bomber<br>
2. Stay Clean<br>
3. Metropolis<br>
4. When the Sky Comes Looking for You<br>
5. Over the Top<br>
6. Guitar Solo<br>
7. The Chase Is Better Than the Catch<br>
8. Lost Woman Blues<br>
9. Rock It<br>
10. Orgasmatron<br>
11. Doctor Rock<br>
12. Just 'Cos You Got the Power<br>
13. No Class<br>
14. Ace of Spades<br>
15. Whorehouse Blues<br>
16. Overkill<br>
<br>
<b>Quality</b>: BDRip<br>
<b>Size</b>: 7,4GB<br>
<b>Video resolution/scaling</b>: 720p<br>
<b>Container</b>: MKV<br>
<b>Video Codec</b>: H.264<br>
<b>Audio Codec</b>: FLAC, DTS, AC3<br>
<b>Video</b>: AVC, 1280x720 (16:9), 29.970 fps, 9,250 Kbps<br>
<b>Audio#1</b>: FLAC, 48.0 KHz, 2 ch, 1,779 Kbps<br>
<b>Audio#2</b>: DTS, 48.0 KHz, 6 ch, 1,510 Kbps<br>
<b>Audio#3</b>: AC-3, 48.0 KHz, 6 ch, 448 Kbps<br>
<br>
<b><span style="font-size: 22px"><span style="color: #b30000">send.cm</span></span></b>:<br>
<br>
<div class="bbCodeBlock bbCodeVfcHH HiddenContent">
<div class="attribution type">Hidden Content:</div>
<blockquote>You must either reply or click 'Like' to see the hidden information contained here.</blockquote>
</div></div>
<div class="messageTextEndMarker">&nbsp;</div>
</blockquote>
</article>]]></description>
                <author><![CDATA[XRB80]]></author>
                </item>

                
                <item>
                <title><![CDATA[【Requests】[REQ AUD] - Sha La La - Winnetka Bowling League (24bits - 48kHz Qobuz)]]></title>
                <link><![CDATA[https://sharemania.us/threads/sha-la-la-winnetka-bowling-league-24bits-48khz-qobuz.250803/]]></link>
                <description><![CDATA[<article>
<blockquote class="messageText SelectQuoteContainer ugc baseHtml">
hi guys can you upload this album please? thank youuuuuuuuuuuuuu <br>
LINK: <a href="https://www.qobuz.com/es-es/album/sha-la-la-winnetka-bowling-league/m7py8nu9rqixa" target="_blank" class="externalLink" rel="nofollow">https://www.qobuz.com/es-es/album/sha-la-la-winnetka-bowling-league/m7py8nu9rqixa</a>
<div class="messageTextEndMarker">&nbsp;</div>
</blockquote>
</article>]]></description>
                <author><![CDATA[negrogay]]></author>
                </item>

                
                <item>
                <title><![CDATA[【Apple Music】WEB-RiP - Elena - Señor Loco (feat. Danny Mazo) (1080p)]]></title>
                <link><![CDATA[https://sharemania.us/threads/elena-se%C3%B1or-loco-feat-danny-mazo-1080p.250805/]]></link>
                <description><![CDATA[<article>
<blockquote class="messageText SelectQuoteContainer ugc baseHtml">
<img src="https://i.postimg.cc/X7gCF6BW/Elena-Se-or-Loco-feat-Danny-Mazo-mp4.jpg" class="bbCodeImage LbImage" alt="[​IMG]" data-url="https://i.postimg.cc/X7gCF6BW/Elena-Se-or-Loco-feat-Danny-Mazo-mp4.jpg" style=""><br>
<br>
<div class="bbCodeBlock bbCodeCode">
<div class="type">Code:</div>
<pre>General
Complete name                  : G:\Новая папка\Elena - Señor Loco (feat. Danny Mazo).mp4
Format                         : MPEG-4
Format profile                 : Base Media
Codec ID                       : isom (isom/iso2/avc1/mp41)
File size                      : 160 MiB
Duration                       : 3 min 19 s
Overall bit rate               : 6 706 kb/s
Frame rate                     : 25.000 FPS
Movie name                     : Señor Loco (feat. Danny Mazo)
Performer                      : Elena
Genre                          : Pop
ContentType                    : Music Video
Recorded date                  : 2021-09-02 07:00:00 UTC
Writing application            : Lavf56.30.100
Copyright                      : ℗ 2015 Cat Music

Video
ID                             : 1
Format                         : AVC
Format/Info                    : Advanced Video Codec
Format profile                 : High@L4
Format settings                : CABAC / 5 Ref Frames
Format settings, CABAC         : Yes
Format settings, Reference fra : 5 frames
Format settings, Slice count   : 8 slices per frame
Codec ID                       : avc1
Codec ID/Info                  : Advanced Video Coding
Duration                       : 3 min 19 s
Bit rate                       : 6 439 kb/s
Width                          : 1 920 pixels
Height                         : 864 pixels
Display aspect ratio           : 2.222
Frame rate mode                : Constant
Frame rate                     : 25.000 FPS
Color space                    : YUV
Chroma subsampling             : 4:2:0
Bit depth                      : 8 bits
Scan type                      : Progressive
Bits/(Pixel*Frame)             : 0.155
Stream size                    : 153 MiB (96%)
Color range                    : Limited
Color primaries                : BT.709
Transfer characteristics       : BT.709
Matrix coefficients            : BT.709
Codec configuration box        : avcC

Audio
ID                             : 2
Format                         : AAC LC
Format/Info                    : Advanced Audio Codec Low Complexity
Codec ID                       : mp4a-40-2
Duration                       : 3 min 19 s
Duration_LastFrame             : -9 ms
Bit rate mode                  : Constant
Bit rate                       : 265 kb/s
Channel(s)                     : 2 channels
Channel layout                 : L R
Sampling rate                  : 48.0 kHz
Frame rate                     : 46.875 FPS (1024 SPF)
Compression mode               : Lossy
Stream size                    : 6.25 MiB (4%)
Default                        : Yes
Alternate group                : 1

</pre>
</div>
<div class="bbCodeBlock bbCodeVfcHH HiddenContent">
<div class="attribution type">Hidden Content:</div>
<blockquote>You must either reply or click 'Like' to see the hidden information contained here.</blockquote>
</div>
<div class="messageTextEndMarker">&nbsp;</div>
</blockquote>
</article>]]></description>
                <author><![CDATA[vitalya3]]></author>
                </item>

                </channel></rss>